<svg xmlns="http://www.w3.org/2000/svg" shape-rendering="geometricPrecision" text-rendering="geometricPrecision" image-rendering="optimizeQuality" fill-rule="evenodd" clip-rule="evenodd" viewBox="0 0 486 511.942"><path fill-rule="nonzero" d="M269.863 203.715v249.556h135.206c3.748 0 7.138 1.537 9.579 3.978a13.552 13.552 0 013.982 9.582v31.55c0 3.693-1.552 7.092-4.008 9.554l.021.02c-2.445 2.445-5.85 3.987-9.574 3.987H83.853c-3.669 0-7.066-1.524-9.54-3.983l-.042-.042c-2.444-2.46-3.979-5.829-3.979-9.536v-31.55c0-3.738 1.523-7.131 3.976-9.584a13.523 13.523 0 019.585-3.976h135.249l.001-249.364a54.7 54.7 0 01-13.567-9.9 55.038 55.038 0 01-9.944-13.549h-74.523v3.279c0 3.738-1.524 7.131-3.977 9.584a13.525 13.525 0 01-9.584 3.976h-3.696l51.539 121.755h33.524v10.755c0 26.075-10.572 49.685-27.662 66.775-17.09 17.09-40.7 27.663-66.776 27.663-26.075 0-49.685-10.573-66.775-27.663C10.571 379.492 0 355.882 0 329.807v-10.755H33.614l52.978-121.755h-2.765a13.528 13.528 0 01-9.586-3.976 13.529 13.529 0 01-3.976-9.584v-3.279H57.553a14.313 14.313 0 01-9.28-3.429c-2.928-2.509-4.74-6.092-4.74-10.131v-23.682c0-4.042 1.815-7.621 4.74-10.132a14.308 14.308 0 019.28-3.43h138.182a55.124 55.124 0 0116.966-19.301c8.942-6.307 19.832-10.013 31.563-10.013 11.732 0 22.62 3.706 31.563 10.013a55.134 55.134 0 0116.966 19.301h138.576c3.524 0 6.817 1.314 9.28 3.43 2.926 2.511 4.741 6.09 4.741 10.132v23.682c0 4.039-1.813 7.622-4.741 10.131a14.304 14.304 0 01-9.28 3.429h-15.712v3.279c0 3.738-1.524 7.131-3.976 9.584a13.531 13.531 0 01-9.585 3.976h-1.16l51.54 121.755H486v10.755c0 26.075-10.573 49.685-27.663 66.775-17.089 17.09-40.7 27.663-66.775 27.663-26.076 0-49.686-10.573-66.775-27.663-17.091-17.09-27.663-40.7-27.663-66.775v-10.755h33.615l52.977-121.755h-5.301a13.528 13.528 0 01-9.586-3.976 13.529 13.529 0 01-3.976-9.584v-3.279h-71.915a55.214 55.214 0 01-23.075 23.257zm74.241 115.337h95.079l-46.885-110.761-48.194 110.761zm-297.124 0h95.079L95.174 208.291 46.98 319.052z"/><path fill="#FFE27B" d="M259.108 196.743v267.282h145.961c1.543 0 2.806 1.286 2.806 2.806v31.55c0 1.516-1.29 2.806-2.806 2.806H83.853c-1.516 0-2.806-1.262-2.806-2.806v-31.55a2.815 2.815 0 012.806-2.806h145.961l.001-267.143c-12.717-4.409-22.792-14.469-27.215-27.179h-92.286v14.034a2.814 2.814 0 01-2.806 2.805H83.827a2.815 2.815 0 01-2.807-2.805v-14.034H57.553c-1.796 0-3.265-1.262-3.265-2.805v-23.682c0-1.544 1.469-2.807 3.265-2.807h145.151c6.081-17.081 22.391-29.314 41.56-29.314 19.168 0 35.479 12.233 41.561 29.314h145.544c1.797 0 3.266 1.263 3.266 2.807v23.682c0 1.543-1.469 2.805-3.266 2.805h-26.467v14.034a2.814 2.814 0 01-2.806 2.805h-23.681a2.814 2.814 0 01-2.807-2.805v-14.034h-89.677c-4.378 12.578-14.291 22.562-26.823 27.04z"/><path fill-rule="nonzero" d="M244.264 125.225c16.524 0 29.977 13.472 29.977 29.977 0 16.531-13.461 29.975-29.977 29.975-8.275 0-15.77-3.357-21.194-8.781-5.424-5.425-8.782-12.92-8.782-21.194 0-8.275 3.358-15.771 8.782-21.195 5.424-5.425 12.919-8.782 21.194-8.782z"/><path fill="#EA542B" d="M244.264 135.98c10.615 0 19.222 8.606 19.222 19.222 0 10.614-8.607 19.221-19.222 19.221-10.616 0-19.221-8.607-19.221-19.221 0-10.616 8.605-19.222 19.221-19.222z"/><path fill="#FFC54A" d="M94.437 329.807H10.755c0 46.217 37.466 83.683 83.682 83.683 46.217 0 83.683-37.466 83.683-83.683H94.437zM391.562 329.807h-83.683c0 46.217 37.466 83.683 83.683 83.683 46.217 0 83.683-37.466 83.683-83.683h-83.683z"/><path fill="#FE3150" d="M391.563 0c30.752 0 55.678 24.927 55.678 55.678 0 30.749-24.926 55.677-55.678 55.677-30.75.002-55.678-24.926-55.678-55.677C335.885 24.926 360.813 0 391.563 0z"/><path fill="#fff" d="M405.083 33.134a6.155 6.155 0 018.767-.023c2.426 2.437 2.436 6.402.024 8.852l-13.567 13.72 13.577 13.73c2.396 2.432 2.361 6.37-.07 8.798-2.434 2.428-6.347 2.421-8.74-.011l-13.507-13.655-13.526 13.676a6.153 6.153 0 01-8.766.024c-2.426-2.437-2.438-6.402-.024-8.852l13.567-13.72-13.578-13.729c-2.395-2.431-2.361-6.37.072-8.799 2.433-2.428 6.346-2.421 8.738.011l13.508 13.657 13.525-13.679z"/><path fill="#68D166" d="M94.439.006c30.747 0 55.671 24.924 55.671 55.67 0 30.747-24.924 55.671-55.671 55.671S38.768 86.423 38.768 55.676c0-30.746 24.924-55.67 55.671-55.67z"/><path fill="#fff" d="M65.747 58.451c.819-4.748 6.24-7.392 10.516-4.82.389.232.759.507 1.103.822l.033.031c1.92 1.839 4.07 3.753 6.202 5.651l1.828 1.642 25.07-26.132c1.297-1.357 2.244-2.234 4.189-2.673 6.659-1.468 11.339 6.671 6.62 11.645L90.893 76.37c-2.547 2.717-7.1 2.965-9.838.37-1.57-1.458-3.277-2.94-5.002-4.436-2.989-2.598-6.037-5.247-8.523-7.87-1.491-1.49-2.135-3.931-1.783-5.983z"/></svg>